PathFileType	4	(X/Y/Z)	C:\Users\°ÂÌØÂü\Desktop\20210112\bx_n_10_1801-Unnamed.trc
DataRate	CameraRate	NumFrames	NumMarkers	Units	OrigDataRate	OrigDataStartFrame	OrigNumFrames
50.00	50.00	       8	0	mm	50.00	141	       563
Frame#	Time	
		

141	2.800	-524.45294	55.44669	532.43030	-800.19946	306.51306	586.21375	-718.56421	-10.07538	666.60626	-707.92157	218.83792	659.93726	-664.57281	305.11301	565.04413	-468.63336	-61.98849	904.31030	-665.59192	54.12069	151.55295	-498.24048	170.72328	520.84363	-501.34586	-6.36073	458.79892	-485.43903	232.21230	461.50607	-596.09192	282.94775	452.19797				-792.15814	237.10408	667.42468	-647.96143	-65.97807	164.47281	-694.51373	149.23900	207.65593	-753.28644	224.29312	209.85744	-609.81378	-77.15727	158.38261	-882.56708	296.04025	144.71681	-694.51685	79.30917	208.39685	-590.58881	23.29853	165.05070	-546.92554	-35.77283	162.93370	-671.93256	173.81479	151.31685	-588.38788	218.29601	171.68478	-658.87567	296.89032	160.78996	-623.44482	304.61526	159.77286	-553.03314	258.45807	162.47783	-527.99902	304.12732	146.59570	-331.72794	112.84377	1168.30859	-476.65604	274.77802	899.99146	-517.92627	-72.83294	142.77960	-786.56952	170.28789	193.44350				-781.01959	53.81785	181.40485	-1010.04803	112.34842	680.09192	-617.05542	-57.45088	451.20642	-739.99146	-8.52799	211.12137	-875.95349	-78.78808	141.09819	-810.84088	-82.11778	606.76740													-701.73230	-78.01396	574.89484	-563.21893	-60.04136	537.71002	-547.43195	-57.42278	505.36395	
142	2.820	-524.03473	55.45831	532.29651	-799.80585	305.95685	587.82025	-717.66113	-9.98016	667.24371	-706.86700	218.73311	661.75708	-664.82556	305.46265	567.40289	-469.77609	-62.71175	908.74365	-665.24426	52.89252	150.71216	-498.36902	170.62271	520.87781	-501.33444	-6.27401	458.64908	-485.48322	231.90419	461.60855	-596.17712	282.43921	452.76096				-791.56372	236.81245	669.48468	-647.82513	-66.08064	164.54536	-694.71558	149.21619	207.44591	-753.35828	224.16672	210.10329	-609.60345	-77.37122	158.34393	-882.48834	295.87018	144.74023	-694.41425	79.51726	208.52496	-590.73712	23.18083	165.02351	-546.77179	-35.57482	162.65372	-671.92834	174.14815	151.18903	-588.16754	218.48022	171.68204	-658.95581	296.98291	160.85251	-623.66199	304.64227	159.75423	-552.94952	258.70914	162.60716	-528.10876	304.49658	146.54573	-333.64545	112.64085	1173.43005	-477.73373	274.53702	904.02960	-517.74133	-72.62498	142.97711	-786.47937	170.27516	193.68393				-780.92474	54.05124	181.54707	-1009.69000	111.35876	682.73413	-616.14978	-56.37378	450.37424	-739.86420	-8.45790	211.32314	-875.88751	-78.54328	141.29303	-809.90369	-82.18458	607.97937													-701.17944	-77.95708	575.53790	-562.82281	-59.91322	538.22748	-546.59540	-57.06441	505.26865	
143	2.840	-523.33441	55.77982	532.33734	-799.38550	306.24896	590.45038	-716.20630	-11.00615	669.23590	-705.92487	219.06749	663.53491	-664.51947	303.43451	566.61334	-471.32791	-63.25259	913.49615	-665.24426	52.89252	150.71216	-497.87488	170.52165	520.91901	-501.15878	-6.15911	458.59622	-485.48611	231.95473	461.75238	-595.83698	281.82584	452.94394				-791.26514	236.49316	672.68585	-647.72034	-65.85371	164.39499				-753.19208	223.83165	210.34206	-609.22705	-77.62418	158.20389	-882.45123	296.12094	144.70648	-694.12012	79.22916	208.10210	-590.58881	23.29853	165.05070	-546.90228	-35.64767	162.67303	-671.92242	173.87308	151.37183	-588.16754	218.48022	171.68204	-658.95581	296.98291	160.85251	-623.46881	304.73380	159.52428	-552.94952	258.70914	162.60716	-528.02759	304.34650	146.51938	-336.05222	112.15128	1179.13794	-478.75366	273.72162	908.57251	-517.74133	-72.62498	142.97711	-786.41693	169.89874	194.09639				-780.83258	54.03406	181.68752	-1009.30591	110.46236	685.72510	-615.64301	-56.28365	450.75128	-739.80798	-8.23865	211.38287	-875.88751	-78.54328	141.29303	-808.65063	-82.18182	609.53186													-700.14386	-78.26230	576.58234	-562.10864	-59.28193	537.63470	-546.30017	-57.07862	505.41214	
144	2.860	-523.07910	55.84839	532.06189	-798.85730	305.64560	592.71893	-714.65924	-11.08629	670.60822	-705.22766	219.51122	665.88251	-664.53253	303.19888	568.03979	-472.36862	-64.70625	919.27283	-665.22955	54.52226	152.34422	-498.22479	170.40717	521.58295	-500.58115	-5.98310	458.27670	-485.45660	232.05632	462.13120	-596.30164	281.20239	452.88150				-790.81415	236.30016	675.96667	-647.63251	-65.71346	164.55206				-753.36066	223.44481	210.51024	-609.67853	-77.28023	158.15051	-882.51611	296.07315	144.81024	-694.12012	79.22916	208.10210	-590.84540	23.54881	165.13370	-546.76379	-35.64504	162.74289	-671.82208	173.99594	151.37344	-588.25134	218.57460	171.64789	-658.84711	297.07263	161.25195	-623.61505	304.54468	159.53149	-552.94952	258.70914	162.60716	-527.99902	304.12732	146.59570	-338.22092	111.94515	1185.31384	-479.85846	273.48163	913.87549	-517.63971	-72.78642	142.97116	-786.30457	169.56583	193.93376				-780.96967	54.46806	182.00395	-1008.66785	109.91293	689.00891	-615.64301	-56.28365	450.75128	-739.55450	-8.31620	211.90202	-875.88751	-78.54328	141.29303	-807.92523	-82.07955	611.40363													-699.74207	-77.91095	577.37354	-561.52753	-58.90408	537.52374	-546.50604	-57.31229	505.83765	
145	2.880	-522.95868	56.12426	531.97021	-798.65375	305.40244	595.49561	-713.48761	-11.05476	672.04565	-703.68036	219.07201	667.77704	-664.11438	302.97787	569.82886	-473.92413	-65.18835	924.65497				-498.27689	169.94055	521.79694	-499.91611	-5.08615	458.31177	-486.19083	232.05074	462.18472	-597.01660	281.10846	453.11252	-694.86920	147.91881	207.66307	-790.59344	235.65717	679.41632	-647.54797	-66.14411	164.75131				-753.34680	223.23193	210.33734	-609.95233	-77.10666	157.61086	-882.47894	296.17172	144.71632	-694.05115	79.70280	208.64017	-590.83514	23.53642	165.16264	-546.79218	-35.55883	162.73480	-671.82208	173.99594	151.37344	-588.26343	218.49307	171.28064	-658.83600	296.90274	161.22849	-623.88947	304.23495	159.41179	-553.01062	258.87170	162.49995	-527.99902	304.12732	146.59570	-341.25342	111.37444	1191.89404	-480.90683	272.50354	919.26874	-517.75531	-72.70916	142.88919	-786.15790	169.22125	193.61661				-781.00494	54.49475	182.11067	-1007.64301	109.15218	692.66980	-615.54120	-55.92869	450.60223	-739.38861	-8.31751	212.05721	-875.88751	-78.54328	141.29303	-806.78113	-81.99902	613.59271													-699.04102	-77.95838	578.94434	-561.25574	-59.22079	537.67358	
146	2.900	-522.89319	56.07656	531.93146	-798.69025	304.99289	598.87048	-712.13123	-11.48301	674.14740	-703.07172	218.73680	669.92224	-664.41028	302.46008	571.60999	-474.81073	-66.70153	931.24219				-498.52173	169.68025	521.83472	-499.90848	-4.98049	457.96335	-486.52277	231.95386	462.38077	-597.33136	280.94992	453.80035	-694.81171	147.81989	207.60141	-790.75806	235.02782	683.66071	-647.43109	-65.99200	164.85175				-753.48840	223.22809	210.54221	-609.70764	-77.03108	157.60956	-882.49823	296.02063	144.78654	-693.63843	79.90324	208.54536	-591.00598	23.64139	165.09372	-546.70502	-35.52981	162.42720	-672.17664	173.56236	152.16849	-588.25317	218.50713	171.62227	-658.76617	296.55426	160.80812	-623.88947	304.23495	159.41179	-553.08502	258.87573	162.51787	-528.08655	304.28012	146.63309	-344.26456	110.73778	1199.06653	-482.03424	272.04843	925.38068	-517.75531	-72.70916	142.88919	-786.18652	169.23523	193.56470				-781.01715	54.61852	181.93327	-1007.48474	108.08621	696.81036	-615.49005	-55.80878	450.90527	-739.59314	-7.97769	211.59044	-875.88751	-78.54328	141.29303	-806.12866	-82.11503	616.20947													-698.35620	-77.72572	579.91205	-561.69537	-60.19194	538.78058	
147	2.920	-522.90192	56.42600	532.08423	-798.59180	304.15421	601.89703	-710.29395	-11.80552	676.75812	-702.18799	218.54677	672.68945	-664.37396	301.81784	573.24994	-476.69641	-66.74762	937.61761				-499.63965	168.93799	521.99884	-500.09586	-4.90094	458.45804	-487.54144	230.53912	462.90631	-597.63550	280.25305	454.11398	-694.97699	147.49074	207.26578	-790.76294	235.31364	688.52905	-647.37933	-65.88012	164.78539				-753.42981	223.29480	210.22874	-609.59985	-77.18732	157.73955	-882.51611	296.07315	144.81024	-693.69891	79.99657	208.59352	-591.00598	23.64139	165.09372	-546.60968	-35.75924	162.68300	-671.44427	174.30190	150.83672	-588.33698	218.60150	171.58812	-658.70813	296.83939	161.12642	-623.86560	304.13617	159.39906	-553.22260	258.96817	162.64211	-527.99078	304.21622	146.57008	-347.43066	110.45465	1206.46973	-483.31238	271.76782	931.59387	-517.75531	-72.70916	142.88919	-786.36078	169.37877	193.38611				-781.00543	54.73406	182.10863	-1006.96497	107.51180	701.55707	-615.49005	-55.80878	450.90527	-739.91809	-7.85986	211.31155	-875.88751	-78.54328	141.29303	-805.39563	-81.91199	619.17249													-698.06348	-77.19614	581.91614	
148	2.940	-523.07904	56.47373	532.37317	-798.46814	303.21906	605.48553	-709.16797	-11.84299	679.26575	-701.51837	218.33656	676.00751	-664.55121	301.89832	575.98840	-478.07001	-68.41306	945.21466	-546.63153	-55.28167	507.22855	-500.46844	167.96271	522.54218	-500.90417	-4.53378	458.50784	-487.87424	230.05205	462.92783	-598.15308	279.29715	454.50604	-694.99060	147.37843	206.63881	-790.91290	234.78313	693.55621	-647.37933	-65.88012	164.78539				-753.48688	223.49255	210.20879	-609.70972	-77.04477	157.65359	-882.52795	296.07245	144.75093	-693.51306	79.87788	208.41417	-590.94696	23.73909	165.03148	-546.67780	-35.84769	162.55396	-671.56622	174.33530	150.70320	-588.40381	218.46782	171.53471	-658.69519	296.69833	161.02174	-623.87213	304.03137	159.48396	-553.25110	258.79062	162.65077	-527.99902	304.12732	146.59570	-350.30276	109.98198	1214.41321	-484.81653	271.00085	939.43146	-517.93420	-72.65564	142.97946	-786.41858	169.41704	193.17789				-780.81555	54.66644	181.65887	-1006.78906	106.75613	706.67719	-615.50226	-55.64847	450.87567	-739.88629	-7.80900	211.45090	-875.88751	-78.54328	141.29303	-804.73199	-82.09747	622.30823													-698.10248	-78.12128	584.54938	
